# xmcd
#
# Track frame offsets:
#	150
#	17492
#	34446
#	50782
#	65569
#	79868
#	96511
#	114929
#	133213
#	153486
#	168884
#	182980
#
# Disc length: 2623 seconds
#
# Revision: 0
# Processed by: cddbd v1.5.2PL0 Copyright (c) Steve Scherf et al.
# Submitted via: dBpowerAMP V4.0
#
DISCID=a70a3d0c
DTITLE=Colbie Caillat - Coco
DYEAR=2007
DGENRE=Pop
TTITLE0=oxygen
TTITLE1=the little things
TTITLE2=one fine wire
TTITLE3=bubbly
TTITLE4=feelings show
TTITLE5=midnight bottle
TTITLE6=realize
TTITLE7=batle
TTITLE8=tailor made
TTITLE9=magic
TTITLE10=tied down
TTITLE11=capri
EXTD=
EXTT0=
EXTT1=
EXTT2=
EXTT3=
EXTT4=
EXTT5=
EXTT6=
EXTT7=
EXTT8=
EXTT9=
EXTT10=
EXTT11=
PLAYORDER=
